{"title":"Clarkson.Powered.Up.DVDRip.XviD.AC3-EMBER","uid":6814172,"size":994132081,"categoryP":"video","categoryS":"movies","magnet":"?xt=urn:btih:f2ea4ee8a13804267bcf48351aeef4436d1227cb&amp;dn=Clarkson.Powered.Up.DVDRip.XviD.AC3-EMBER&amp;tr=udp%3A%2F%2Ftracker.openbittorrent.com%3A80&amp;tr=udp%3A%2F%2Fopen.demonii.com%3A1337&amp;tr=udp%3A%2F%2Ftracker.coppersurfer.tk%3A6969&amp;tr=udp%3A%2F%2Fexodus.desync.com%3A6969","seeders":0,"leechers":0,"uploader":"TvTeam","files":5,"time":1321135615,"description":". \n &lt;a href=&quot;\nhttp://www.torrenting.com&quot; rel=&quot;nofollow&quot; target=&quot;_NEW&quot;&gt;\nhttp://www.torrenting.com&lt;/a&gt;          :     Once &amp; For all ;)\n\n\n               www . Torrenting . Com \n\n(((((((((((((= Enjoy No RAR releases =))))))))))))))))))))\n\n\n...................................NFO:....................................\n\n.Clarkson.Powered.Up.DVDRip.XviD.AC3-EMBER\n\n\nDescription\nJeremy Clarkson heads to the south of France where he puts cars to the test on the Circuit Paul Ricard and on the open road. \nAmong the cars featured are the Ferrari FF and the 458, McLaren's MP4-12C, the latest Nissan GTR, the Porche GT2 RS, the \nLamborghini Performante and the BMW 1M. The Stig and racing driver Karun Chandhok are on hand to help put these vehicles to \nthe test, but which one will Jeremy choose as his favourite car of the year?\n\nProduced                         : 2011\nRunning Time                     : 66 min\nExtras                           : 21 min\nSource                           : Own :P\n\nGeneral\nFormat                           : AVI\nFormat/Info                      : Audio Video Interleave\nFile size                        : 699 MiB\nDuration                         : 1h 6mn\nOverall bit rate                 : 1 469 Kbps\nWriting application              : VirtualDubMod 1.5.10.2 (build 2540/release)\nWriting library                  : VirtualDubMod build 2540/release\n\nVideo\nID                               : 0\nFormat                           : MPEG-4 Visual\nFormat profile                   : Advanced Simple@L5\nFormat settings, BVOP            : 2\nFormat settings, QPel            : No\nFormat settings, GMC             : No warppoints\nFormat settings, Matrix          : Default (H.263)\nMuxing mode                      : Packed bitstream\nCodec ID                         : XVID\nCodec ID/Hint                    : XviD\nDuration                         : 1h 6mn\nBit rate                         : 1 267 Kbps\nWidth                            : 720 pixels\nHeight                           : 400 pixels\nDisplay aspect ratio             : 16:9\nFrame rate                       : 25.000 fps\nColor space                      : YUV\nChroma subsampling               : 4:2:0\nBit depth                        : 8 bits\nScan type                        : Progressive\nCompression mode                 : Lossy\nBits/(Pixel*Frame)               : 0.176\nStream size                      : 603 MiB (86%)\nWriting library                  : XviD 64\n\nAudio\nID                               : 1\nFormat                           : AC-3\nFormat/Info                      : Audio Coding 3\nMode extension                   : CM (complete main)\nCodec ID                         : 2000\nDuration                         : 1h 6mn\nBit rate mode                    : Constant\nBit rate                         : 192 Kbps\nChannel(s)                       : 2 channels\nChannel positions                : Front: L R\nSampling rate                    : 48.0 KHz\nBit depth                        : 16 bits\nCompression mode                 : Lossy\nStream size                      : 91.4 MiB (13%)\nAlignment                        : Split accross interleaves\nInterleave, duration             : 40 ms (1.00 video frame)\nInterleave, preload duration     : 500 ms\n\nGreetz to\n\nSHiRK, SHK, LKRG, UnKnOwN, IMAGiNE, SiC, BHRG, TaRiQ786, FLAWL3SS, Rx\n\nSAMURAi, ViSUALiSE, RemixHD, iNSANE, DTRG. Hive, ILLUMINATI, U.S.M\n\nMiSTERE\n\nAnd to all other groups past and present\n\nGot something to offer?\n\nthen you should know where to find us","torrent":{"xt":"urn:btih:f2ea4ee8a13804267bcf48351aeef4436d1227cb","amp;dn":"Clarkson.Powered.Up.DVDRip.XviD.AC3-EMBER","amp;tr":["udp%3A%2F%2Ftracker.openbittorrent.com%3A80","udp%3A%2F%2Fopen.demonii.com%3A1337","udp%3A%2F%2Ftracker.coppersurfer.tk%3A6969","udp%3A%2F%2Fexodus.desync.com%3A6969"],"infoHash":"f2ea4ee8a13804267bcf48351aeef4436d1227cb","infoHashBuffer":{"type":"Buffer","data":[242,234,78,232,161,56,4,38,123,207,72,53,26,238,244,67,109,18,39,203]},"announce":[],"urlList":[]}}